<svg width="80" height="900" viewBox="0 0 80 900" fill="none" xmlns="http://www.w3.org/2000/svg">
<rect width="80" height="900" fill="white"/>
<g clip-path="url(#clip0_5_64)">
<path d="M32.5 40H47.5" stroke="#D0D1D2" stroke-width="1.66667" stroke-linecap="round" stroke-linejoin="round"/>
<path d="M32.5 35H47.5" stroke="#D0D1D2" stroke-width="1.66667" stroke-linecap="round" stroke-linejoin="round"/>
<path d="M32.5 45H47.5" stroke="#D0D1D2" stroke-width="1.66667" stroke-linecap="round" stroke-linejoin="round"/>
<g clip-path="url(#clip1_5_64)">
<rect x="60" y="80" width="2" height="40" rx="1" transform="rotate(90 60 80)" fill="url(#paint0_linear_5_64)"/>
</g>
<rect x="20" y="108" width="40" height="40" rx="15" fill="#F7931A"/>
<path fill-rule="evenodd" clip-rule="evenodd" d="M50.5482 125.03C51.0186 121.886 48.6245 120.196 45.3509 119.068L46.4128 114.808L43.8201 114.162L42.7862 118.31C42.1046 118.14 41.4046 117.979 40.7089 117.821L41.7502 113.646L39.1589 113L38.0962 117.258C37.5321 117.129 36.9782 117.002 36.4406 116.869L36.4436 116.856L32.8679 115.963L32.1782 118.732C32.1782 118.732 34.1019 119.173 34.0613 119.2C35.1114 119.462 35.3012 120.157 35.2694 120.708L34.0598 125.56C34.1322 125.579 34.226 125.606 34.3294 125.647L34.2415 125.625L34.2414 125.625C34.1813 125.61 34.119 125.594 34.0554 125.579L32.3599 132.376C32.2314 132.696 31.9057 133.174 31.1717 132.992C31.1975 133.03 29.2871 132.522 29.2871 132.522L28 135.49L31.374 136.331C31.7508 136.425 32.1231 136.522 32.4915 136.619L32.4921 136.619C32.7372 136.683 32.9805 136.746 33.2224 136.808L32.1494 141.116L34.7392 141.762L35.8018 137.5C36.5093 137.692 37.1961 137.869 37.8681 138.036L36.8091 142.279L39.4018 142.925L40.4748 138.625C44.896 139.461 48.2206 139.124 49.6199 135.125C50.7476 131.905 49.5638 130.048 47.2377 128.837C48.9317 128.446 50.2078 127.332 50.5482 125.03ZM44.6242 133.337C43.8892 136.291 39.2655 135.07 37.1499 134.511L37.1496 134.511C36.9594 134.461 36.7894 134.416 36.6444 134.38L38.0682 128.672C38.2448 128.716 38.4607 128.765 38.7052 128.82L38.7052 128.82C40.8933 129.311 45.3775 130.317 44.6242 133.337ZM39.1448 126.171C40.9087 126.642 44.756 127.669 45.4262 124.984C46.1106 122.238 42.3712 121.41 40.545 121.006C40.3396 120.96 40.1583 120.92 40.0103 120.883L38.7195 126.06C38.8414 126.09 38.9845 126.128 39.1448 126.171Z" fill="white"/>
<rect x="20" y="174" width="40" height="40" rx="15" fill="#1F8DED"/>
<path fill-rule="evenodd" clip-rule="evenodd" d="M38.9091 183.091C38.9091 182.488 39.3976 182 40 182C40.6025 182 41.0909 182.488 41.0909 183.091V198.909C41.0909 199.512 40.6025 200 40 200C39.3976 200 38.9091 199.512 38.9091 198.909V183.091ZM34.5455 182.552C33.943 182.552 33.4546 183.04 33.4546 183.643V198.217C33.4546 198.819 33.943 199.308 34.5455 199.308C35.1479 199.308 35.6364 198.819 35.6364 198.217V183.643C35.6364 183.04 35.1479 182.552 34.5455 182.552ZM50.9091 196.727C51.5116 196.727 52 196.239 52 195.636V185.825C52 185.222 51.5116 184.734 50.9091 184.734C50.3067 184.734 49.8182 185.222 49.8182 185.825V195.636C49.8182 196.239 50.3067 196.727 50.9091 196.727ZM40 206C47.4095 206 51.4508 202.609 51.6193 202.465C52.0767 202.072 52.1296 201.384 51.7374 200.926C51.3455 200.469 50.6555 200.416 50.1989 200.808C50.164 200.838 46.6109 203.818 40 203.818C33.4709 203.818 29.8625 200.859 29.7984 200.806C29.3408 200.416 28.6538 200.47 28.2627 200.926C27.8705 201.384 27.9237 202.072 28.3808 202.465C28.5493 202.609 32.5906 206 40 206ZM28 185.825C28 185.222 28.4885 184.734 29.0909 184.734C29.6934 184.734 30.1818 185.222 30.1818 185.825V195.636C30.1818 196.239 29.6934 196.727 29.0909 196.727C28.4885 196.727 28 196.239 28 195.636V185.825ZM45.4546 182.552C44.8521 182.552 44.3637 183.04 44.3637 183.643V198.217C44.3637 198.819 44.8521 199.308 45.4546 199.308C46.057 199.308 46.5455 198.819 46.5455 198.217V183.643C46.5455 183.04 46.057 182.552 45.4546 182.552Z" fill="white"/>
<rect x="20" y="240" width="40" height="40" rx="15" fill="#FF7977"/>
<path fill-rule="evenodd" clip-rule="evenodd" d="M51.9992 267.218C51.9907 266.466 51.8276 265.698 51.5315 264.931C51.3849 264.55 51.2554 264.25 50.9622 263.596L50.945 263.558L50.8637 263.376C49.0642 259.381 47.1715 255.421 45.1863 251.496C45.1361 251.397 45.096 251.318 45.0076 251.143L45.0039 251.136C44.6792 250.494 44.5295 250.204 44.3347 249.848C43.978 249.199 43.6145 248.693 43.1754 248.278C42.4027 247.528 41.3569 247.07 40.2704 247.001L39.7975 247C38.6563 247.057 37.5757 247.533 36.781 248.322C36.3648 248.723 36.0158 249.215 35.6674 249.847C35.4719 250.204 35.3111 250.515 35.0044 251.122L34.9682 251.194L34.8282 251.47C33.5072 254.081 32.2178 256.728 30.9593 259.411C30.0389 261.382 29.3888 262.802 28.7634 264.22C28.3773 265.099 28.1587 265.757 28.0631 266.455C27.8607 267.802 28.1498 269.224 28.8637 270.392C29.4784 271.407 30.4004 272.22 31.4735 272.691C32.3096 273.059 33.2312 273.226 34.1385 273.171C35.285 273.109 36.4364 272.707 37.5032 272.033C38.3555 271.501 39.1327 270.831 40.0014 269.92C40.788 270.747 41.5031 271.376 42.2773 271.89C43.3323 272.597 44.4637 273.041 45.6051 273.15C46.9321 273.292 48.3023 272.953 49.4111 272.204C50.3873 271.55 51.1582 270.585 51.5914 269.476C51.8725 268.76 52.0122 267.987 51.9992 267.218ZM49.2981 268.306C49.0689 269.112 48.5158 269.818 47.7978 270.222C47.1651 270.583 46.401 270.713 45.6715 270.589C44.8027 270.451 43.9484 270.002 43.0595 269.273C42.6236 268.916 42.2029 268.509 41.7243 267.992C42.5823 266.859 43.22 265.869 43.7234 264.838C44.3448 263.562 44.6952 262.37 44.7322 261.186C44.7569 260.297 44.5823 259.441 44.2035 258.706C43.692 257.692 42.7729 256.895 41.6908 256.507C40.7111 256.151 39.619 256.116 38.6117 256.409C37.643 256.688 36.7772 257.28 36.1855 258.082C35.6701 258.774 35.3609 259.634 35.29 260.532C35.1955 261.653 35.428 262.819 35.928 264.054C36.4732 265.377 37.2469 266.647 38.2806 267.989C37.9283 268.378 37.5466 268.751 37.1377 269.109C36.2514 269.873 35.4112 270.358 34.5477 270.548C33.7884 270.722 32.9888 270.629 32.3237 270.286C31.5311 269.884 30.9201 269.123 30.6909 268.254C30.5184 267.625 30.5476 266.928 30.7653 266.274C30.8933 265.892 31.0225 265.584 31.3267 264.905L31.3522 264.848C31.4077 264.724 31.4436 264.644 31.4804 264.561C33.2418 260.649 35.1067 256.746 37.0718 252.854L37.2219 252.557L37.2294 252.542C37.5804 251.846 37.7434 251.529 37.9509 251.148C38.2292 250.644 38.4744 250.317 38.7701 250.088C39.1245 249.805 39.5692 249.654 40.0075 249.664C40.4762 249.659 40.9345 249.829 41.289 250.132C41.6054 250.4 41.8474 250.753 42.171 251.368C42.6361 252.258 43.0409 253.06 43.7823 254.552L43.9148 254.818L43.9294 254.848C45.591 258.198 47.179 261.562 48.6924 264.938C48.713 264.985 48.7289 265.021 48.7675 265.109L48.7959 265.173C49.0803 265.818 49.197 266.111 49.2981 266.474C49.4644 267.078 49.4657 267.721 49.2984 268.305L49.2981 268.306ZM38.2806 267.989C38.3763 267.883 38.4698 267.776 38.5612 267.668L38.5511 268.334C38.459 268.218 38.3689 268.103 38.2806 267.989ZM41.7243 267.992C41.6371 268.107 41.5475 268.224 41.4556 268.342L41.4322 267.671C41.5322 267.782 41.6294 267.889 41.7243 267.992ZM40.0001 265.882C40.1525 266.095 40.2719 266.25 40.4072 266.413L40.0072 266.749L39.5926 266.431C39.7349 266.244 39.8707 266.061 40.0001 265.882ZM40.0001 265.882C40.8064 264.765 41.3676 263.784 41.7479 262.767C42.0352 261.986 42.1547 261.29 42.083 260.653C42.0261 260.154 41.8007 259.697 41.4575 259.399C40.7394 258.767 39.5757 258.698 38.7599 259.235C38.4336 259.446 38.1774 259.767 38.0426 260.139C37.9004 260.514 37.8671 260.962 37.9274 261.483C37.9982 262.046 38.1756 262.628 38.4577 263.272C38.7539 263.94 39.1327 264.609 39.5999 265.307L39.6262 265.345L39.6711 265.411C39.8008 265.599 39.9066 265.751 40.0001 265.882Z" fill="white"/>
<rect x="60" y="303" width="2" height="40" rx="1" transform="rotate(90 60 303)" fill="url(#paint1_linear_5_64)"/>
<rect width="80" height="262" transform="translate(0 315)" fill="white"/>
<rect x="18" y="328" width="44" height="236" rx="15" fill="#F8F9FE"/>
<g filter="url(#filter0_dd_5_64)">
<rect x="20" y="330" width="40" height="40" rx="15" fill="white"/>
<rect x="20.5" y="330.5" width="39" height="39" rx="14.5" stroke="#F2F2F7"/>
<path fill-rule="evenodd" clip-rule="evenodd" d="M43.5 344.75C42.5335 344.75 41.75 345.534 41.75 346.5V353.5C41.75 354.466 42.5335 355.25 43.5 355.25C44.4665 355.25 45.25 354.466 45.25 353.5C45.25 352.534 44.4665 351.75 43.5 351.75H36.5C35.5335 351.75 34.75 352.534 34.75 353.5C34.75 354.466 35.5335 355.25 36.5 355.25C37.4665 355.25 38.25 354.466 38.25 353.5V346.5C38.25 345.534 37.4665 344.75 36.5 344.75C35.5335 344.75 34.75 345.534 34.75 346.5C34.75 347.466 35.5335 348.25 36.5 348.25H43.5C44.4665 348.25 45.25 347.466 45.25 346.5C45.25 345.534 44.4665 344.75 43.5 344.75Z" stroke="#422F8A" stroke-opacity="0.87" stroke-width="1.16667" stroke-linecap="round" stroke-linejoin="round"/>
</g>
<path d="M45.3724 400.269C44.3515 402.684 41.8455 404.12 39.2461 403.782C36.6467 403.443 34.5925 401.412 34.2242 398.817C33.8559 396.222 35.264 393.699 37.6666 392.651" stroke="#D0D1D2" stroke-width="1.16667" stroke-linecap="round" stroke-linejoin="round"/>
<path fill-rule="evenodd" clip-rule="evenodd" d="M45.8333 398C45.8333 396.453 45.2188 394.969 44.1248 393.875C43.0308 392.781 41.5471 392.167 40 392.167V398H45.8333Z" stroke="#D0D1D2" stroke-width="1.16667" stroke-linecap="round" stroke-linejoin="round"/>
<path fill-rule="evenodd" clip-rule="evenodd" d="M39.9998 451.833C43.2215 451.833 45.8332 449.222 45.8332 446C45.8332 442.778 43.2215 440.167 39.9998 440.167C36.7782 440.167 34.1665 442.778 34.1665 446C34.1665 449.222 36.7782 451.833 39.9998 451.833Z" stroke="#D0D1D2" stroke-width="1.16667" stroke-linecap="round" stroke-linejoin="round"/>
<path d="M40 442.5V446L41.75 447.75" stroke="#D0D1D2" stroke-width="1.16667" stroke-linecap="round" stroke-linejoin="round"/>
<path fill-rule="evenodd" clip-rule="evenodd" d="M39.9998 499.833C43.2215 499.833 45.8332 497.222 45.8332 494C45.8332 490.778 43.2215 488.167 39.9998 488.167C36.7782 488.167 34.1665 490.778 34.1665 494C34.1665 497.222 36.7782 499.833 39.9998 499.833Z" stroke="#D0D1D2" stroke-width="1.16667" stroke-linecap="round" stroke-linejoin="round"/>
<path d="M34.1665 494H45.8332" stroke="#D0D1D2" stroke-width="1.16667" stroke-linecap="round" stroke-linejoin="round"/>
<path fill-rule="evenodd" clip-rule="evenodd" d="M39.9998 488.167C41.4589 489.764 42.2881 491.837 42.3332 494C42.2881 496.163 41.4589 498.236 39.9998 499.833C38.5408 498.236 37.7116 496.163 37.6665 494C37.7116 491.837 38.5408 489.764 39.9998 488.167V488.167Z" stroke="#D0D1D2" stroke-width="1.16667" stroke-linecap="round" stroke-linejoin="round"/>
<path d="M40 536.167V538.5" stroke="#D0D1D2" stroke-width="1.16667" stroke-linecap="round" stroke-linejoin="round"/>
<path d="M40 545.5V547.833" stroke="#D0D1D2" stroke-width="1.16667" stroke-linecap="round" stroke-linejoin="round"/>
<path d="M35.876 537.876L37.5268 539.527" stroke="#D0D1D2" stroke-width="1.16667" stroke-linecap="round" stroke-linejoin="round"/>
<path d="M42.4736 544.473L44.1245 546.124" stroke="#D0D1D2" stroke-width="1.16667" stroke-linecap="round" stroke-linejoin="round"/>
<path d="M34.1665 542H36.4998" stroke="#D0D1D2" stroke-width="1.16667" stroke-linecap="round" stroke-linejoin="round"/>
<path d="M43.5 542H45.8333" stroke="#D0D1D2" stroke-width="1.16667" stroke-linecap="round" stroke-linejoin="round"/>
<path d="M35.876 546.124L37.5268 544.473" stroke="#D0D1D2" stroke-width="1.16667" stroke-linecap="round" stroke-linejoin="round"/>
<path d="M42.4736 539.527L44.1245 537.876" stroke="#D0D1D2" stroke-width="1.16667" stroke-linecap="round" stroke-linejoin="round"/>
</g>
<g clip-path="url(#clip2_5_64)">
<rect x="60" y="818" width="2" height="40" rx="1" transform="rotate(90 60 818)" fill="url(#paint2_linear_5_64)"/>
<rect x="18" y="843" width="44" height="44" rx="15" fill="#F8F9FE"/>
<path fill-rule="evenodd" clip-rule="evenodd" d="M45.25 866.75C45.25 867.394 44.7277 867.917 44.0833 867.917H37.0833L34.75 870.25V860.917C34.75 860.272 35.2723 859.75 35.9167 859.75H44.0833C44.7277 859.75 45.25 860.272 45.25 860.917V866.75Z" stroke="#422F8A" stroke-opacity="0.87" stroke-width="1.16667" stroke-linecap="round" stroke-linejoin="round"/>
</g>
<defs>
<filter id="filter0_dd_5_64" x="12" y="326" width="56" height="56" filterUnits="userSpaceOnUse" color-interpolation-filters="sRGB">
<feFlood flood-opacity="0" result="BackgroundImageFix"/>
<feColorMatrix in="SourceAlpha" type="matrix" values="0 0 0 0 0 0 0 0 0 0 0 0 0 0 0 0 0 0 127 0" result="hardAlpha"/>
<feOffset dy="4"/>
<feGaussianBlur stdDeviation="4"/>
<feColorMatrix type="matrix" values="0 0 0 0 0.196078 0 0 0 0 0.196078 0 0 0 0 0.278431 0 0 0 0.01 0"/>
<feBlend mode="normal" in2="BackgroundImageFix" result="effect1_dropShadow_5_64"/>
<feColorMatrix in="SourceAlpha" type="matrix" values="0 0 0 0 0 0 0 0 0 0 0 0 0 0 0 0 0 0 127 0" result="hardAlpha"/>
<feOffset dy="4"/>
<feGaussianBlur stdDeviation="2"/>
<feColorMatrix type="matrix" values="0 0 0 0 0 0 0 0 0 0 0 0 0 0 0 0 0 0 0.08 0"/>
<feBlend mode="normal" in2="effect1_dropShadow_5_64" result="effect2_dropShadow_5_64"/>
<feBlend mode="normal" in="SourceGraphic" in2="effect2_dropShadow_5_64" result="shape"/>
</filter>
<linearGradient id="paint0_linear_5_64" x1="61" y1="80" x2="61" y2="120" gradientUnits="userSpaceOnUse">
<stop stop-color="#EEECFA" stop-opacity="0"/>
<stop offset="0.514425" stop-color="#F9F9F9"/>
<stop offset="1" stop-color="#EEECFA" stop-opacity="0"/>
</linearGradient>
<linearGradient id="paint1_linear_5_64" x1="61" y1="303" x2="61" y2="343" gradientUnits="userSpaceOnUse">
<stop stop-color="#EEECFA" stop-opacity="0"/>
<stop offset="0.514425" stop-color="#F9F9F9"/>
<stop offset="1" stop-color="#EEECFA" stop-opacity="0"/>
</linearGradient>
<linearGradient id="paint2_linear_5_64" x1="61" y1="818" x2="61" y2="858" gradientUnits="userSpaceOnUse">
<stop stop-color="#EEECFA" stop-opacity="0"/>
<stop offset="0.514425" stop-color="#F9F9F9"/>
<stop offset="1" stop-color="#EEECFA" stop-opacity="0"/>
</linearGradient>
<clipPath id="clip0_5_64">
<rect width="80" height="577" fill="white"/>
</clipPath>
<clipPath id="clip1_5_64">
<rect width="80" height="2" fill="white" transform="translate(0 80)"/>
</clipPath>
<clipPath id="clip2_5_64">
<rect width="80" height="92" fill="white" transform="translate(0 808)"/>
</clipPath>
</defs>
</svg>
