<svg width="1358" height="82" viewBox="0 0 1358 82" fill="none" xmlns="http://www.w3.org/2000/svg">
<rect width="1358" height="80" fill="white"/>
<rect x="63" y="80" width="35" height="2" rx="1" fill="#11263C"/>
<g clip-path="url(#clip0_5_71)">
<path d="M40.008 34.832C41.1813 34.832 42.2107 35.0613 43.096 35.52C43.992 35.9787 44.68 36.6347 45.16 37.488C45.6507 38.3307 45.896 39.312 45.896 40.432C45.896 41.552 45.6507 42.5333 45.16 43.376C44.68 44.208 43.992 44.8533 43.096 45.312C42.2107 45.7707 41.1813 46 40.008 46H36.104V34.832H40.008ZM39.928 44.096C41.1013 44.096 42.008 43.776 42.648 43.136C43.288 42.496 43.608 41.5947 43.608 40.432C43.608 39.2693 43.288 38.3627 42.648 37.712C42.008 37.0507 41.1013 36.72 39.928 36.72H38.344V44.096H39.928ZM46.9967 41.536C46.9967 40.64 47.1727 39.8453 47.5247 39.152C47.8874 38.4587 48.3728 37.9253 48.9808 37.552C49.5994 37.1787 50.2874 36.992 51.0448 36.992C51.7061 36.992 52.2821 37.1253 52.7728 37.392C53.2741 37.6587 53.6741 37.9947 53.9728 38.4V37.136H56.2288V46H53.9728V44.704C53.6848 45.12 53.2848 45.4667 52.7728 45.744C52.2714 46.0107 51.6901 46.144 51.0288 46.144C50.2821 46.144 49.5994 45.952 48.9808 45.568C48.3728 45.184 47.8874 44.6453 47.5247 43.952C47.1727 43.248 46.9967 42.4427 46.9967 41.536ZM53.9728 41.568C53.9728 41.024 53.8661 40.56 53.6528 40.176C53.4394 39.7813 53.1514 39.4827 52.7888 39.28C52.4261 39.0667 52.0368 38.96 51.6208 38.96C51.2048 38.96 50.8208 39.0613 50.4688 39.264C50.1168 39.4667 49.8288 39.7653 49.6048 40.16C49.3914 40.544 49.2848 41.0027 49.2848 41.536C49.2848 42.0693 49.3914 42.5387 49.6048 42.944C49.8288 43.3387 50.1168 43.6427 50.4688 43.856C50.8314 44.0693 51.2154 44.176 51.6208 44.176C52.0368 44.176 52.4261 44.0747 52.7888 43.872C53.1514 43.6587 53.4394 43.36 53.6528 42.976C53.8661 42.5813 53.9728 42.112 53.9728 41.568ZM61.8085 46.144C61.0832 46.144 60.4325 46.016 59.8565 45.76C59.2805 45.4933 58.8218 45.136 58.4805 44.688C58.1498 44.24 57.9685 43.744 57.9365 43.2H60.1925C60.2352 43.5413 60.4005 43.824 60.6885 44.048C60.9872 44.272 61.3552 44.384 61.7925 44.384C62.2192 44.384 62.5498 44.2987 62.7845 44.128C63.0298 43.9573 63.1525 43.7387 63.1525 43.472C63.1525 43.184 63.0032 42.9707 62.7045 42.832C62.4165 42.6827 61.9525 42.5227 61.3125 42.352C60.6512 42.192 60.1072 42.0267 59.6805 41.856C59.2645 41.6853 58.9018 41.424 58.5925 41.072C58.2938 40.72 58.1445 40.2453 58.1445 39.648C58.1445 39.1573 58.2832 38.7093 58.5605 38.304C58.8485 37.8987 59.2538 37.5787 59.7765 37.344C60.3098 37.1093 60.9338 36.992 61.6485 36.992C62.7045 36.992 63.5472 37.2587 64.1765 37.792C64.8058 38.3147 65.1525 39.024 65.2165 39.92H63.0725C63.0405 39.568 62.8912 39.2907 62.6245 39.088C62.3685 38.8747 62.0218 38.768 61.5845 38.768C61.1792 38.768 60.8645 38.8427 60.6405 38.992C60.4272 39.1413 60.3205 39.3493 60.3205 39.616C60.3205 39.9147 60.4698 40.144 60.7685 40.304C61.0672 40.4533 61.5312 40.608 62.1605 40.768C62.8005 40.928 63.3285 41.0933 63.7445 41.264C64.1605 41.4347 64.5178 41.7013 64.8165 42.064C65.1258 42.416 65.2858 42.8853 65.2965 43.472C65.2965 43.984 65.1525 44.4427 64.8645 44.848C64.5872 45.2533 64.1818 45.5733 63.6485 45.808C63.1258 46.032 62.5125 46.144 61.8085 46.144ZM72.1273 37.008C72.7993 37.008 73.3966 37.1573 73.9193 37.456C74.4419 37.744 74.8473 38.176 75.1353 38.752C75.4339 39.3173 75.5833 40 75.5833 40.8V46H73.3433V41.104C73.3433 40.4 73.1673 39.8613 72.8153 39.488C72.4633 39.104 71.9833 38.912 71.3753 38.912C70.7566 38.912 70.2659 39.104 69.9033 39.488C69.5513 39.8613 69.3753 40.4 69.3753 41.104V46H67.1353V34.16H69.3753V38.24C69.6633 37.856 70.0473 37.5573 70.5273 37.344C71.0073 37.12 71.5406 37.008 72.1273 37.008ZM79.9534 38.432C80.2414 38.0053 80.636 37.6587 81.1374 37.392C81.6494 37.1253 82.2307 36.992 82.8814 36.992C83.6387 36.992 84.3214 37.1787 84.9294 37.552C85.548 37.9253 86.0334 38.4587 86.3854 39.152C86.748 39.8347 86.9294 40.6293 86.9294 41.536C86.9294 42.4427 86.748 43.248 86.3854 43.952C86.0334 44.6453 85.548 45.184 84.9294 45.568C84.3214 45.952 83.6387 46.144 82.8814 46.144C82.22 46.144 81.6387 46.016 81.1374 45.76C80.6467 45.4933 80.252 45.152 79.9534 44.736V46H77.7134V34.16H79.9534V38.432ZM84.6414 41.536C84.6414 41.0027 84.5294 40.544 84.3054 40.16C84.092 39.7653 83.804 39.4667 83.4414 39.264C83.0894 39.0613 82.7054 38.96 82.2894 38.96C81.884 38.96 81.5 39.0667 81.1374 39.28C80.7854 39.4827 80.4974 39.7813 80.2734 40.176C80.06 40.5707 79.9534 41.0347 79.9534 41.568C79.9534 42.1013 80.06 42.5653 80.2734 42.96C80.4974 43.3547 80.7854 43.6587 81.1374 43.872C81.5 44.0747 81.884 44.176 82.2894 44.176C82.7054 44.176 83.0894 44.0693 83.4414 43.856C83.804 43.6427 84.092 43.3387 84.3054 42.944C84.5294 42.5493 84.6414 42.08 84.6414 41.536ZM92.4931 46.144C91.6398 46.144 90.8718 45.9573 90.1891 45.584C89.5065 45.2 88.9678 44.6613 88.5731 43.968C88.1891 43.2747 87.9971 42.4747 87.9971 41.568C87.9971 40.6613 88.1945 39.8613 88.5891 39.168C88.9945 38.4747 89.5438 37.9413 90.2371 37.568C90.9305 37.184 91.7038 36.992 92.5571 36.992C93.4105 36.992 94.1838 37.184 94.8771 37.568C95.5705 37.9413 96.1145 38.4747 96.5091 39.168C96.9145 39.8613 97.1171 40.6613 97.1171 41.568C97.1171 42.4747 96.9091 43.2747 96.4931 43.968C96.0878 44.6613 95.5331 45.2 94.8291 45.584C94.1358 45.9573 93.3571 46.144 92.4931 46.144ZM92.4931 44.192C92.8985 44.192 93.2771 44.096 93.6291 43.904C93.9918 43.7013 94.2798 43.4027 94.4931 43.008C94.7065 42.6133 94.8131 42.1333 94.8131 41.568C94.8131 40.7253 94.5891 40.08 94.1411 39.632C93.7038 39.1733 93.1651 38.944 92.5251 38.944C91.8851 38.944 91.3465 39.1733 90.9091 39.632C90.4825 40.08 90.2691 40.7253 90.2691 41.568C90.2691 42.4107 90.4771 43.0613 90.8931 43.52C91.3198 43.968 91.8531 44.192 92.4931 44.192ZM98.1842 41.536C98.1842 40.64 98.3602 39.8453 98.7122 39.152C99.0749 38.4587 99.5603 37.9253 100.168 37.552C100.787 37.1787 101.475 36.992 102.232 36.992C102.894 36.992 103.47 37.1253 103.96 37.392C104.462 37.6587 104.862 37.9947 105.16 38.4V37.136H107.416V46H105.16V44.704C104.872 45.12 104.472 45.4667 103.96 45.744C103.459 46.0107 102.878 46.144 102.216 46.144C101.47 46.144 100.787 45.952 100.168 45.568C99.5603 45.184 99.0749 44.6453 98.7122 43.952C98.3602 43.248 98.1842 42.4427 98.1842 41.536ZM105.16 41.568C105.16 41.024 105.054 40.56 104.84 40.176C104.627 39.7813 104.339 39.4827 103.976 39.28C103.614 39.0667 103.224 38.96 102.808 38.96C102.392 38.96 102.008 39.0613 101.656 39.264C101.304 39.4667 101.016 39.7653 100.792 40.16C100.579 40.544 100.472 41.0027 100.472 41.536C100.472 42.0693 100.579 42.5387 100.792 42.944C101.016 43.3387 101.304 43.6427 101.656 43.856C102.019 44.0693 102.403 44.176 102.808 44.176C103.224 44.176 103.614 44.0747 103.976 43.872C104.339 43.6587 104.627 43.36 104.84 42.976C105.054 42.5813 105.16 42.112 105.16 41.568ZM111.844 38.512C112.132 38.0427 112.505 37.6747 112.964 37.408C113.433 37.1413 113.967 37.008 114.564 37.008V39.36H113.972C113.268 39.36 112.735 39.5253 112.372 39.856C112.02 40.1867 111.844 40.7627 111.844 41.584V46H109.604V37.136H111.844V38.512ZM115.497 41.536C115.497 40.64 115.673 39.8453 116.025 39.152C116.387 38.4587 116.878 37.9253 117.497 37.552C118.115 37.1787 118.803 36.992 119.561 36.992C120.137 36.992 120.686 37.12 121.209 37.376C121.731 37.6213 122.147 37.952 122.457 38.368V34.16H124.729V46H122.457V44.688C122.179 45.1253 121.79 45.4773 121.289 45.744C120.787 46.0107 120.206 46.144 119.545 46.144C118.798 46.144 118.115 45.952 117.497 45.568C116.878 45.184 116.387 44.6453 116.025 43.952C115.673 43.248 115.497 42.4427 115.497 41.536ZM122.473 41.568C122.473 41.024 122.366 40.56 122.153 40.176C121.939 39.7813 121.651 39.4827 121.289 39.28C120.926 39.0667 120.537 38.96 120.121 38.96C119.705 38.96 119.321 39.0613 118.969 39.264C118.617 39.4667 118.329 39.7653 118.105 40.16C117.891 40.544 117.785 41.0027 117.785 41.536C117.785 42.0693 117.891 42.5387 118.105 42.944C118.329 43.3387 118.617 43.6427 118.969 43.856C119.331 44.0693 119.715 44.176 120.121 44.176C120.537 44.176 120.926 44.0747 121.289 43.872C121.651 43.6587 121.939 43.36 122.153 42.976C122.366 42.5813 122.473 42.112 122.473 41.568Z" fill="#11263C"/>
<path d="M173.952 43.872H169.504L168.768 46H166.416L170.432 34.816H173.04L177.056 46H174.688L173.952 43.872ZM173.344 42.08L171.728 37.408L170.112 42.08H173.344ZM177.981 41.536C177.981 40.64 178.157 39.8453 178.509 39.152C178.872 38.4587 179.362 37.9253 179.981 37.552C180.6 37.1787 181.288 36.992 182.045 36.992C182.621 36.992 183.17 37.12 183.693 37.376C184.216 37.6213 184.632 37.952 184.941 38.368V34.16H187.213V46H184.941V44.688C184.664 45.1253 184.274 45.4773 183.773 45.744C183.272 46.0107 182.69 46.144 182.029 46.144C181.282 46.144 180.6 45.952 179.981 45.568C179.362 45.184 178.872 44.6453 178.509 43.952C178.157 43.248 177.981 42.4427 177.981 41.536ZM184.957 41.568C184.957 41.024 184.85 40.56 184.637 40.176C184.424 39.7813 184.136 39.4827 183.773 39.28C183.41 39.0667 183.021 38.96 182.605 38.96C182.189 38.96 181.805 39.0613 181.453 39.264C181.101 39.4667 180.813 39.7653 180.589 40.16C180.376 40.544 180.269 41.0027 180.269 41.536C180.269 42.0693 180.376 42.5387 180.589 42.944C180.813 43.3387 181.101 43.6427 181.453 43.856C181.816 44.0693 182.2 44.176 182.605 44.176C183.021 44.176 183.41 44.0747 183.773 43.872C184.136 43.6587 184.424 43.36 184.637 42.976C184.85 42.5813 184.957 42.112 184.957 41.568ZM193.097 43.936L195.337 37.136H197.721L194.441 46H191.721L188.457 37.136H190.857L193.097 43.936ZM198.403 41.536C198.403 40.64 198.579 39.8453 198.931 39.152C199.294 38.4587 199.779 37.9253 200.387 37.552C201.006 37.1787 201.694 36.992 202.451 36.992C203.112 36.992 203.688 37.1253 204.179 37.392C204.68 37.6587 205.08 37.9947 205.379 38.4V37.136H207.635V46H205.379V44.704C205.091 45.12 204.691 45.4667 204.179 45.744C203.678 46.0107 203.096 46.144 202.435 46.144C201.688 46.144 201.006 45.952 200.387 45.568C199.779 45.184 199.294 44.6453 198.931 43.952C198.579 43.248 198.403 42.4427 198.403 41.536ZM205.379 41.568C205.379 41.024 205.272 40.56 205.059 40.176C204.846 39.7813 204.558 39.4827 204.195 39.28C203.832 39.0667 203.443 38.96 203.027 38.96C202.611 38.96 202.227 39.0613 201.875 39.264C201.523 39.4667 201.235 39.7653 201.011 40.16C200.798 40.544 200.691 41.0027 200.691 41.536C200.691 42.0693 200.798 42.5387 201.011 42.944C201.235 43.3387 201.523 43.6427 201.875 43.856C202.238 44.0693 202.622 44.176 203.027 44.176C203.443 44.176 203.832 44.0747 204.195 43.872C204.558 43.6587 204.846 43.36 205.059 42.976C205.272 42.5813 205.379 42.112 205.379 41.568ZM214.735 37.008C215.791 37.008 216.644 37.344 217.295 38.016C217.945 38.6773 218.271 39.6053 218.271 40.8V46H216.031V41.104C216.031 40.4 215.855 39.8613 215.503 39.488C215.151 39.104 214.671 38.912 214.063 38.912C213.444 38.912 212.953 39.104 212.591 39.488C212.239 39.8613 212.063 40.4 212.063 41.104V46H209.823V37.136H212.063V38.24C212.361 37.856 212.74 37.5573 213.199 37.344C213.668 37.12 214.18 37.008 214.735 37.008ZM219.825 41.568C219.825 40.6507 220.012 39.8507 220.385 39.168C220.758 38.4747 221.276 37.9413 221.937 37.568C222.598 37.184 223.356 36.992 224.209 36.992C225.308 36.992 226.214 37.2693 226.929 37.824C227.654 38.368 228.14 39.136 228.385 40.128H225.969C225.841 39.744 225.622 39.4453 225.313 39.232C225.014 39.008 224.641 38.896 224.193 38.896C223.553 38.896 223.046 39.1307 222.673 39.6C222.3 40.0587 222.113 40.7147 222.113 41.568C222.113 42.4107 222.3 43.0667 222.673 43.536C223.046 43.9947 223.553 44.224 224.193 44.224C225.1 44.224 225.692 43.8187 225.969 43.008H228.385C228.14 43.968 227.654 44.7307 226.929 45.296C226.204 45.8613 225.297 46.144 224.209 46.144C223.356 46.144 222.598 45.9573 221.937 45.584C221.276 45.2 220.758 44.6667 220.385 43.984C220.012 43.2907 219.825 42.4853 219.825 41.568ZM238.266 41.376C238.266 41.696 238.245 41.984 238.202 42.24H231.722C231.775 42.88 231.999 43.3813 232.394 43.744C232.789 44.1067 233.274 44.288 233.85 44.288C234.682 44.288 235.274 43.9307 235.626 43.216H238.042C237.786 44.0693 237.295 44.7733 236.57 45.328C235.845 45.872 234.954 46.144 233.898 46.144C233.045 46.144 232.277 45.9573 231.594 45.584C230.922 45.2 230.394 44.6613 230.01 43.968C229.637 43.2747 229.45 42.4747 229.45 41.568C229.45 40.6507 229.637 39.8453 230.01 39.152C230.383 38.4587 230.906 37.9253 231.578 37.552C232.25 37.1787 233.023 36.992 233.898 36.992C234.741 36.992 235.493 37.1733 236.154 37.536C236.826 37.8987 237.343 38.416 237.706 39.088C238.079 39.7493 238.266 40.512 238.266 41.376ZM235.946 40.736C235.935 40.16 235.727 39.7013 235.322 39.36C234.917 39.008 234.421 38.832 233.834 38.832C233.279 38.832 232.81 39.0027 232.426 39.344C232.053 39.6747 231.823 40.1387 231.738 40.736H235.946ZM239.325 41.536C239.325 40.64 239.501 39.8453 239.853 39.152C240.216 38.4587 240.706 37.9253 241.325 37.552C241.944 37.1787 242.632 36.992 243.389 36.992C243.965 36.992 244.514 37.12 245.037 37.376C245.56 37.6213 245.976 37.952 246.285 38.368V34.16H248.557V46H246.285V44.688C246.008 45.1253 245.618 45.4773 245.117 45.744C244.616 46.0107 244.034 46.144 243.373 46.144C242.626 46.144 241.944 45.952 241.325 45.568C240.706 45.184 240.216 44.6453 239.853 43.952C239.501 43.248 239.325 42.4427 239.325 41.536ZM246.301 41.568C246.301 41.024 246.194 40.56 245.981 40.176C245.768 39.7813 245.48 39.4827 245.117 39.28C244.754 39.0667 244.365 38.96 243.949 38.96C243.533 38.96 243.149 39.0613 242.797 39.264C242.445 39.4667 242.157 39.7653 241.933 40.16C241.72 40.544 241.613 41.0027 241.613 41.536C241.613 42.0693 241.72 42.5387 241.933 42.944C242.157 43.3387 242.445 43.6427 242.797 43.856C243.16 44.0693 243.544 44.176 243.949 44.176C244.365 44.176 244.754 44.0747 245.117 43.872C245.48 43.6587 245.768 43.36 245.981 42.976C246.194 42.5813 246.301 42.112 246.301 41.568ZM262.877 47.968L261.181 45.936C260.712 46.0533 260.232 46.112 259.741 46.112C258.696 46.112 257.736 45.8667 256.861 45.376C255.986 44.8853 255.293 44.208 254.781 43.344C254.269 42.4693 254.013 41.4827 254.013 40.384C254.013 39.296 254.269 38.32 254.781 37.456C255.293 36.5813 255.986 35.8987 256.861 35.408C257.736 34.9173 258.696 34.672 259.741 34.672C260.797 34.672 261.757 34.9173 262.621 35.408C263.496 35.8987 264.184 36.5813 264.685 37.456C265.197 38.32 265.453 39.296 265.453 40.384C265.453 41.376 265.24 42.2827 264.813 43.104C264.397 43.9147 263.826 44.576 263.101 45.088L265.661 47.968H262.877ZM256.317 40.384C256.317 41.1307 256.461 41.7867 256.749 42.352C257.037 42.9173 257.437 43.3547 257.949 43.664C258.472 43.9627 259.069 44.112 259.741 44.112C260.413 44.112 261.005 43.9627 261.517 43.664C262.029 43.3547 262.429 42.9173 262.717 42.352C263.005 41.7867 263.149 41.1307 263.149 40.384C263.149 39.6373 263.005 38.9867 262.717 38.432C262.429 37.8667 262.029 37.4347 261.517 37.136C261.005 36.8373 260.413 36.688 259.741 36.688C259.069 36.688 258.472 36.8373 257.949 37.136C257.437 37.4347 257.037 37.8667 256.749 38.432C256.461 38.9867 256.317 39.6373 256.317 40.384ZM275.519 37.136V46H273.263V44.88C272.975 45.264 272.596 45.568 272.127 45.792C271.668 46.0053 271.167 46.112 270.623 46.112C269.93 46.112 269.316 45.968 268.783 45.68C268.25 45.3813 267.828 44.9493 267.519 44.384C267.22 43.808 267.071 43.1253 267.071 42.336V37.136H269.311V42.016C269.311 42.72 269.487 43.264 269.839 43.648C270.191 44.0213 270.671 44.208 271.279 44.208C271.898 44.208 272.383 44.0213 272.735 43.648C273.087 43.264 273.263 42.72 273.263 42.016V37.136H275.519ZM277.153 41.536C277.153 40.64 277.329 39.8453 277.681 39.152C278.044 38.4587 278.529 37.9253 279.137 37.552C279.756 37.1787 280.444 36.992 281.201 36.992C281.862 36.992 282.438 37.1253 282.929 37.392C283.43 37.6587 283.83 37.9947 284.129 38.4V37.136H286.385V46H284.129V44.704C283.841 45.12 283.441 45.4667 282.929 45.744C282.428 46.0107 281.846 46.144 281.185 46.144C280.438 46.144 279.756 45.952 279.137 45.568C278.529 45.184 278.044 44.6453 277.681 43.952C277.329 43.248 277.153 42.4427 277.153 41.536ZM284.129 41.568C284.129 41.024 284.022 40.56 283.809 40.176C283.596 39.7813 283.308 39.4827 282.945 39.28C282.582 39.0667 282.193 38.96 281.777 38.96C281.361 38.96 280.977 39.0613 280.625 39.264C280.273 39.4667 279.985 39.7653 279.761 40.16C279.548 40.544 279.441 41.0027 279.441 41.536C279.441 42.0693 279.548 42.5387 279.761 42.944C279.985 43.3387 280.273 43.6427 280.625 43.856C280.988 44.0693 281.372 44.176 281.777 44.176C282.193 44.176 282.582 44.0747 282.945 43.872C283.308 43.6587 283.596 43.36 283.809 42.976C284.022 42.5813 284.129 42.112 284.129 41.568ZM290.813 38.512C291.101 38.0427 291.474 37.6747 291.933 37.408C292.402 37.1413 292.935 37.008 293.533 37.008V39.36H292.941C292.237 39.36 291.703 39.5253 291.341 39.856C290.989 40.1867 290.813 40.7627 290.813 41.584V46H288.573V37.136H290.813V38.512ZM297.282 38.512C297.57 38.0427 297.943 37.6747 298.402 37.408C298.871 37.1413 299.404 37.008 300.002 37.008V39.36H299.41C298.706 39.36 298.172 39.5253 297.81 39.856C297.458 40.1867 297.282 40.7627 297.282 41.584V46H295.042V37.136H297.282V38.512ZM309.99 37.136L304.502 50.192H302.118L304.038 45.776L300.486 37.136H302.998L305.286 43.328L307.606 37.136H309.99Z" fill="#D0D1D2"/>
<path d="M354.344 36.64V39.44H358.104V41.216H354.344V44.176H358.584V46H352.104V34.816H358.584V36.64H354.344ZM364.316 43.936L366.556 37.136H368.94L365.66 46H362.94L359.676 37.136H362.076L364.316 43.936ZM378.438 41.376C378.438 41.696 378.416 41.984 378.374 42.24H371.894C371.947 42.88 372.171 43.3813 372.566 43.744C372.96 44.1067 373.446 44.288 374.022 44.288C374.854 44.288 375.446 43.9307 375.798 43.216H378.214C377.958 44.0693 377.467 44.7733 376.742 45.328C376.016 45.872 375.126 46.144 374.07 46.144C373.216 46.144 372.448 45.9573 371.766 45.584C371.094 45.2 370.566 44.6613 370.182 43.968C369.808 43.2747 369.622 42.4747 369.622 41.568C369.622 40.6507 369.808 39.8453 370.182 39.152C370.555 38.4587 371.078 37.9253 371.75 37.552C372.422 37.1787 373.195 36.992 374.07 36.992C374.912 36.992 375.664 37.1733 376.326 37.536C376.998 37.8987 377.515 38.416 377.878 39.088C378.251 39.7493 378.438 40.512 378.438 41.376ZM376.118 40.736C376.107 40.16 375.899 39.7013 375.494 39.36C375.088 39.008 374.592 38.832 374.006 38.832C373.451 38.832 372.982 39.0027 372.598 39.344C372.224 39.6747 371.995 40.1387 371.91 40.736H376.118ZM384.985 37.008C386.041 37.008 386.894 37.344 387.545 38.016C388.195 38.6773 388.521 39.6053 388.521 40.8V46H386.281V41.104C386.281 40.4 386.105 39.8613 385.753 39.488C385.401 39.104 384.921 38.912 384.313 38.912C383.694 38.912 383.203 39.104 382.841 39.488C382.489 39.8613 382.313 40.4 382.313 41.104V46H380.073V37.136H382.313V38.24C382.611 37.856 382.99 37.5573 383.449 37.344C383.918 37.12 384.43 37.008 384.985 37.008ZM393.259 38.976V43.264C393.259 43.5627 393.328 43.7813 393.467 43.92C393.616 44.048 393.862 44.112 394.203 44.112H395.243V46H393.835C391.947 46 391.003 45.0827 391.003 43.248V38.976H389.947V37.136H391.003V34.944H393.259V37.136H395.243V38.976H393.259ZM400.246 46.144C399.521 46.144 398.87 46.016 398.294 45.76C397.718 45.4933 397.259 45.136 396.918 44.688C396.587 44.24 396.406 43.744 396.374 43.2H398.63C398.673 43.5413 398.838 43.824 399.126 44.048C399.425 44.272 399.793 44.384 400.23 44.384C400.657 44.384 400.987 44.2987 401.222 44.128C401.467 43.9573 401.59 43.7387 401.59 43.472C401.59 43.184 401.441 42.9707 401.142 42.832C400.854 42.6827 400.39 42.5227 399.75 42.352C399.089 42.192 398.545 42.0267 398.118 41.856C397.702 41.6853 397.339 41.424 397.03 41.072C396.731 40.72 396.582 40.2453 396.582 39.648C396.582 39.1573 396.721 38.7093 396.998 38.304C397.286 37.8987 397.691 37.5787 398.214 37.344C398.747 37.1093 399.371 36.992 400.086 36.992C401.142 36.992 401.985 37.2587 402.614 37.792C403.243 38.3147 403.59 39.024 403.654 39.92H401.51C401.478 39.568 401.329 39.2907 401.062 39.088C400.806 38.8747 400.459 38.768 400.022 38.768C399.617 38.768 399.302 38.8427 399.078 38.992C398.865 39.1413 398.758 39.3493 398.758 39.616C398.758 39.9147 398.907 40.144 399.206 40.304C399.505 40.4533 399.969 40.608 400.598 40.768C401.238 40.928 401.766 41.0933 402.182 41.264C402.598 41.4347 402.955 41.7013 403.254 42.064C403.563 42.416 403.723 42.8853 403.734 43.472C403.734 43.984 403.59 44.4427 403.302 44.848C403.025 45.2533 402.619 45.5733 402.086 45.808C401.563 46.032 400.95 46.144 400.246 46.144Z" fill="#D0D1D2"/>
<rect x="445" y="20" width="2" height="40" rx="1" fill="url(#paint0_linear_5_71)"/>
<path fill-rule="evenodd" clip-rule="evenodd" d="M497.5 46C501.642 46 505 42.6421 505 38.5C505 34.3579 501.642 31 497.5 31C493.358 31 490 34.3579 490 38.5C490 42.6421 493.358 46 497.5 46Z" stroke="#D0D1D2" stroke-width="2" stroke-linecap="round" stroke-linejoin="round"/>
<path d="M508 49L502.8 43.8" stroke="#D0D1D2" stroke-width="2" stroke-linecap="round" stroke-linejoin="round"/>
</g>
<defs>
<linearGradient id="paint0_linear_5_71" x1="446" y1="20" x2="446" y2="60" gradientUnits="userSpaceOnUse">
<stop stop-color="#EEECFA" stop-opacity="0"/>
<stop offset="0.514425" stop-color="#F9F9F9"/>
<stop offset="1" stop-color="#EEECFA" stop-opacity="0"/>
</linearGradient>
<clipPath id="clip0_5_71">
<rect width="476" height="40" fill="white" transform="translate(35 20)"/>
</clipPath>
</defs>
</svg>
